<mxfile host="app.diagrams.net" agent="Mozilla/5.0 (Macintosh; Intel Mac OS X 10_15_7) AppleWebKit/537.36 (KHTML, like Gecko) Chrome/133.0.0.0 Safari/537.36" version="26.1.0">
  <diagram name="Page-1" id="rTQAHnz_gqVbVHMEzQIj">
    <mxGraphModel grid="1" page="1" gridSize="10" guides="1" tooltips="1" connect="1" arrows="1" fold="1" pageScale="1" pageWidth="827" pageHeight="1169" math="0" shadow="0">
      <root>
        <mxCell id="0" />
        <mxCell id="1" parent="0" />
        <mxCell id="ydUxNFfIyZ-yTWKevaif-4" value="" style="edgeStyle=orthogonalEdgeStyle;rounded=0;orthogonalLoop=1;jettySize=auto;html=1;" edge="1" parent="1" source="ydUxNFfIyZ-yTWKevaif-2" target="ydUxNFfIyZ-yTWKevaif-3">
          <mxGeometry relative="1" as="geometry" />
        </mxCell>
        <mxCell id="ydUxNFfIyZ-yTWKevaif-2" value="Web&amp;nbsp;&lt;span style=&quot;background-color: transparent; color: light-dark(rgb(0, 0, 0), rgb(255, 255, 255));&quot;&gt;User&lt;/span&gt;" style="rounded=1;whiteSpace=wrap;html=1;" vertex="1" parent="1">
          <mxGeometry x="30" y="410" width="120" height="60" as="geometry" />
        </mxCell>
        <mxCell id="ydUxNFfIyZ-yTWKevaif-6" value="" style="edgeStyle=orthogonalEdgeStyle;rounded=0;orthogonalLoop=1;jettySize=auto;html=1;" edge="1" parent="1" source="ydUxNFfIyZ-yTWKevaif-3" target="ydUxNFfIyZ-yTWKevaif-5">
          <mxGeometry relative="1" as="geometry" />
        </mxCell>
        <mxCell id="ydUxNFfIyZ-yTWKevaif-3" value="Router53" style="rounded=1;whiteSpace=wrap;html=1;" vertex="1" parent="1">
          <mxGeometry x="220" y="410" width="120" height="60" as="geometry" />
        </mxCell>
        <mxCell id="ydUxNFfIyZ-yTWKevaif-8" value="" style="edgeStyle=orthogonalEdgeStyle;rounded=0;orthogonalLoop=1;jettySize=auto;html=1;" edge="1" parent="1" source="ydUxNFfIyZ-yTWKevaif-5" target="ydUxNFfIyZ-yTWKevaif-7">
          <mxGeometry relative="1" as="geometry" />
        </mxCell>
        <mxCell id="ydUxNFfIyZ-yTWKevaif-5" value="CloudFront" style="rounded=1;whiteSpace=wrap;html=1;" vertex="1" parent="1">
          <mxGeometry x="420" y="410" width="120" height="60" as="geometry" />
        </mxCell>
        <mxCell id="ydUxNFfIyZ-yTWKevaif-7" value="S3 Bucket" style="whiteSpace=wrap;html=1;rounded=1;" vertex="1" parent="1">
          <mxGeometry x="620" y="410" width="120" height="60" as="geometry" />
        </mxCell>
        <mxCell id="LwstQJ7kV9SSXNu8UCMq-6" value="" style="edgeStyle=orthogonalEdgeStyle;rounded=0;orthogonalLoop=1;jettySize=auto;html=1;" edge="1" parent="1" source="LwstQJ7kV9SSXNu8UCMq-1" target="LwstQJ7kV9SSXNu8UCMq-5">
          <mxGeometry relative="1" as="geometry" />
        </mxCell>
        <mxCell id="LwstQJ7kV9SSXNu8UCMq-1" value="Github" style="rounded=1;whiteSpace=wrap;html=1;" vertex="1" parent="1">
          <mxGeometry x="30" y="580" width="120" height="60" as="geometry" />
        </mxCell>
        <mxCell id="LwstQJ7kV9SSXNu8UCMq-4" value="&lt;h1 style=&quot;margin-top: 0px;&quot;&gt;Codepipline&lt;/h1&gt;" style="text;html=1;whiteSpace=wrap;overflow=hidden;rounded=0;" vertex="1" parent="1">
          <mxGeometry x="30" y="530" width="170" height="40" as="geometry" />
        </mxCell>
        <mxCell id="LwstQJ7kV9SSXNu8UCMq-8" value="" style="edgeStyle=orthogonalEdgeStyle;rounded=0;orthogonalLoop=1;jettySize=auto;html=1;" edge="1" parent="1" source="LwstQJ7kV9SSXNu8UCMq-5" target="LwstQJ7kV9SSXNu8UCMq-7">
          <mxGeometry relative="1" as="geometry" />
        </mxCell>
        <mxCell id="LwstQJ7kV9SSXNu8UCMq-5" value="CodeBuild" style="rounded=1;whiteSpace=wrap;html=1;" vertex="1" parent="1">
          <mxGeometry x="220" y="580" width="120" height="60" as="geometry" />
        </mxCell>
        <mxCell id="LwstQJ7kV9SSXNu8UCMq-10" value="" style="edgeStyle=orthogonalEdgeStyle;rounded=0;orthogonalLoop=1;jettySize=auto;html=1;" edge="1" parent="1" source="LwstQJ7kV9SSXNu8UCMq-7" target="LwstQJ7kV9SSXNu8UCMq-9">
          <mxGeometry relative="1" as="geometry" />
        </mxCell>
        <mxCell id="LwstQJ7kV9SSXNu8UCMq-7" value="S3" style="rounded=1;whiteSpace=wrap;html=1;" vertex="1" parent="1">
          <mxGeometry x="414" y="580" width="120" height="60" as="geometry" />
        </mxCell>
        <mxCell id="LwstQJ7kV9SSXNu8UCMq-9" value="Lambda&lt;br&gt;- invalidCloudfornt&amp;nbsp;" style="rounded=1;whiteSpace=wrap;html=1;" vertex="1" parent="1">
          <mxGeometry x="630" y="580" width="120" height="60" as="geometry" />
        </mxCell>
      </root>
    </mxGraphModel>
  </diagram>
</mxfile>
